<svg width="160" height="160" viewBox="0 0 160 160" fill="none" xmlns="http://www.w3.org/2000/svg">
  <defs>
    <linearGradient id="bgB" x1="20" y1="10" x2="140" y2="155" gradientUnits="userSpaceOnUse">
      <stop stop-color="#F59E0B"/>
      <stop offset="0.55" stop-color="#EA580C"/>
      <stop offset="1" stop-color="#DC2626"/>
    </linearGradient>
    <linearGradient id="innerB" x1="50" y1="30" x2="110" y2="130" gradientUnits="userSpaceOnUse">
      <stop stop-color="white" stop-opacity="0.2"/>
      <stop offset="1" stop-color="white" stop-opacity="0.05"/>
    </linearGradient>
  </defs>
  <path d="M80 8C50 8 16 24 16 24V88C16 120 44 148 80 156C116 148 144 120 144 88V24C144 24 110 8 80 8Z" fill="url(#bgB)"/>
  <path d="M80 16C54 16 24 30 24 30V86C24 114 48 140 80 148C112 140 136 114 136 86V30C136 30 106 16 80 16Z" fill="url(#innerB)"/>
  <path d="M92 36H60L56 72H78L54 124L108 68H82L92 36Z" fill="white" fill-opacity="0.95"/>
</svg>
